<svg width="100" height="100" viewBox="0 0 100 100" fill="none" xmlns="http://www.w3.org/2000/svg">
<g clip-path="url(#clip0_48_201)">
<path d="M50 100C77.6142 100 100 77.6142 100 50C100 22.3858 77.6142 0 50 0C22.3858 0 0 22.3858 0 50C0 77.6142 22.3858 100 50 100Z" fill="#E21B1B"/>
<path d="M68.1406 50.7469L38.3734 33.5625V67.9328L68.1406 50.7469Z" fill="white"/>
<path d="M50 12.7859C70.5203 12.7859 87.2141 29.4797 87.2141 50C87.2141 70.5203 70.5203 87.2141 50 87.2141C29.4797 87.2141 12.7859 70.5203 12.7859 50C12.7859 29.4797 29.4797 12.7859 50 12.7859ZM50 11.2234C28.5844 11.2234 11.2234 28.5844 11.2234 50C11.2234 71.4156 28.5844 88.7766 50 88.7766C71.4156 88.7766 88.7766 71.4156 88.7766 50C88.7766 28.5844 71.4156 11.2234 50 11.2234Z" fill="white"/>
</g>
<defs>
<clipPath id="clip0_48_201">
<rect width="100" height="100" fill="white"/>
</clipPath>
</defs>
</svg>
