<svg width="50" height="50" viewBox="0 0 50 50" fill="none" xmlns="http://www.w3.org/2000/svg">
<path fill-rule="evenodd" clip-rule="evenodd" d="M17.7131 0H32.2868V2.93589H38.1586V7.28687C38.1586 11.2506 34.9555 14.7694 30.8717 14.7694H30.8701C30.5924 15.1788 30.2897 15.5741 29.9876 15.9506C29.6975 16.3122 29.3938 16.6736 29.0995 17.0234L29.0786 17.0482C28.7882 17.3934 28.5067 17.728 28.2361 18.0631C27.0613 19.5183 26.415 20.6224 26.415 21.5682V23.6828H29.4038V26.513H20.5962V23.6828H23.5848V21.5682C23.5848 20.6224 22.9386 19.5183 21.7637 18.0631C21.4932 17.728 21.2117 17.3934 20.9212 17.0482L20.9004 17.0234C20.6061 16.6736 20.3023 16.3122 20.0123 15.9506C19.7102 15.5741 19.4075 15.1788 19.1298 14.7694H19.1283C15.0445 14.7694 11.8414 11.2506 11.8414 7.28687V2.93589H17.7131V0ZM17.7131 5.76608H14.6716V7.28687C14.6716 9.33818 16.0308 11.1304 17.8307 11.7279C17.7534 11.3027 17.7131 10.865 17.7131 10.4185V5.76608ZM24.9999 17.664C25.3346 17.1687 25.6933 16.7074 26.0341 16.2852C26.3229 15.9276 26.6204 15.5738 26.9055 15.2351L26.9338 15.2014C27.2309 14.8482 27.5138 14.5114 27.7801 14.1795C28.3203 13.5062 28.7371 12.9193 28.9997 12.387C29.2918 11.795 29.4566 11.128 29.4566 10.4185V2.83019H20.5433V10.4185C20.5433 11.128 20.708 11.795 21.0001 12.3869C21.2628 12.9193 21.6796 13.5062 22.2198 14.1795C22.4861 14.5114 22.769 14.8482 23.0661 15.2014L23.0943 15.2349C23.3793 15.5737 23.677 15.9275 23.9658 16.2852C24.3066 16.7074 24.6653 17.1687 24.9999 17.664ZM32.1692 11.7279C32.2465 11.3027 32.2868 10.865 32.2868 10.4185V5.76608H35.3284V7.28687C35.3284 9.33822 33.9691 11.1304 32.1692 11.7279ZM9.14627 13.0928L11.8653 18.6019L17.9451 19.4855L13.5457 23.7738L14.5841 29.829L9.14627 26.9701L3.7084 29.829L4.7443 23.7887L0.179533 19.4855L6.42859 18.5991L9.14627 13.0928ZM40.8538 13.0928L43.5728 18.6019L49.6526 19.4855L45.2532 23.7738L46.2917 29.829L40.8538 26.9701L35.4159 29.829L36.4544 23.7738L32.055 19.4855L38.1347 18.6019L40.8538 13.0928ZM9.14627 19.4875L8.30527 21.1915L6.40158 21.4615L7.79039 22.7707L7.46718 24.6553L9.14627 23.7726L10.8254 24.6553L10.5047 22.7856L11.8631 21.4615L9.9859 21.1887L9.14627 19.4875ZM40.8538 19.4875L40.0141 21.1887L38.1369 21.4615L39.4953 22.7856L39.1747 24.6553L40.8538 23.7726L42.5329 24.6553L42.2122 22.7856L43.5707 21.4615L41.6934 21.1887L40.8538 19.4875ZM14.7773 29.5545H35.2228V38.3622H50V50H0V35.4263H14.7773V29.5545ZM14.7773 38.2565H2.83019V47.1698H14.7773V38.2565ZM17.6075 47.1698H32.3926V32.3847H17.6075V47.1698ZM35.2228 47.1698H47.1698V41.1923H35.2228V47.1698ZM23.5849 38.2565H20.5962V35.4263H26.4151V41.298H29.4038V44.1282H20.5962V41.298H23.5849V38.2565Z" fill="white"/>
</svg>
