<svg width="54" height="50" viewBox="0 0 54 50" fill="none" xmlns="http://www.w3.org/2000/svg">
<path d="M48.7101 4.45409C42.5679 -1.72272 32.4312 -1.41567 26.5832 5.00489C20.7349 -1.41544 10.5985 -1.72283 4.4564 4.4542C-1.65143 10.5368 -1.44335 20.553 4.84982 26.4238C1.63022 29.4987 3.47468 35.0242 7.85691 35.5629C7.59441 38.5636 10.1484 41.3154 13.1695 41.2644C13.3547 44.5677 16.6702 46.9323 19.8489 46.0593C20.8918 49.9948 25.9049 51.3396 28.781 48.4431C30.4144 46.8194 31.7134 45.7956 31.7963 43.3364C34.4953 43.2612 36.8306 40.8942 36.8717 38.1968C39.5966 38.1548 41.9708 35.7798 42.0127 33.0557C44.8396 33.0127 47.2906 30.4613 47.159 27.5811L48.7099 26.0304C54.6586 20.0817 54.6586 10.4026 48.7101 4.45409V4.45409ZM7.18815 28.9066L8.64477 27.45C9.02125 27.0735 9.51558 26.8854 10.0101 26.8854C11.7058 26.8741 12.591 28.9706 11.3753 30.1805L9.91865 31.6371C8.03317 33.373 5.4521 30.7929 7.18815 28.9066V28.9066ZM11.2497 35.9272C11.2497 35.4114 11.4506 34.9265 11.8153 34.5619L13.2727 33.1046C13.6372 32.7403 14.1218 32.5398 14.6371 32.5398C16.3473 32.5368 17.2141 34.6284 16.0024 35.8358L14.7171 37.1211C14.3243 37.5663 13.7846 37.8676 13.1804 37.8579C12.1428 37.8793 11.2282 36.9651 11.2497 35.9272V35.9272ZM17.1277 42.2621C16.3788 41.5434 16.3788 40.2504 17.1277 39.5317L18.413 38.2463C19.1623 37.3568 20.4778 37.241 21.315 38.075C22.0677 38.8278 22.0677 40.0525 21.315 40.8055L19.8582 42.2622C19.1055 43.0153 17.8806 43.0152 17.1277 42.2621V42.2621ZM27.8271 44.5759L26.3705 46.0325C26.0059 46.3972 25.521 46.5981 25.0053 46.5981C24.4895 46.5981 24.0046 46.3972 23.6399 46.0325C22.891 45.3137 22.8907 44.0206 23.64 43.302L25.0965 41.8454C25.8493 41.0925 27.0743 41.0925 27.827 41.8453C28.5761 42.564 28.5762 43.8571 27.8271 44.5759V44.5759ZM43.1864 29.0881C42.4676 29.8371 41.1745 29.8372 40.4559 29.0881L32.8697 21.502L30.4591 23.9126L38.0453 31.4987C38.798 32.2516 38.798 33.4764 38.0453 34.2292C37.2924 34.9823 36.0676 34.9821 35.3148 34.2292L27.8572 26.7717L27.7286 26.6431L25.318 29.0537L25.4466 29.1823L32.9041 36.6398C33.657 37.3927 33.657 38.6176 32.9041 39.3705C32.1513 40.1233 30.9264 40.1233 30.1735 39.3705L30.1721 39.3719C28.7869 38.0328 26.8511 37.5919 25.1027 38.0492C24.5461 35.7748 22.2598 34.053 19.9606 34.1031C19.8492 31.6551 17.7796 29.4437 15.3339 29.1795C15.6566 24.9794 11.0438 22.087 7.4035 24.156C2.33364 19.6273 2.02136 11.6773 6.86724 6.86469C11.6853 2.01291 19.6461 2.33439 24.1729 7.4155L19.9585 11.6299L23.3355 15.0069C25.9295 17.6011 29.9268 17.9581 32.9072 16.078L43.1867 26.3576C43.9391 27.1104 43.9391 28.3353 43.1864 29.0881V29.0881ZM46.2995 23.6197L45.78 24.1391C45.7208 24.0738 45.6598 24.0097 45.5971 23.947L33.0412 11.391L31.8358 12.5963C30.1569 14.2752 27.4251 14.2754 25.7458 12.5963L24.7795 11.6299L29.5447 6.86469C41.12 -3.78923 56.9511 12.0519 46.2995 23.6197Z" fill="white"/>
</svg>
