<svg width="50" height="50" viewBox="0 0 50 50" fill="none" xmlns="http://www.w3.org/2000/svg">
<path fill-rule="evenodd" clip-rule="evenodd" d="M31.3188 49.927C32.0603 49.6799 32.4609 48.8785 32.2138 48.1371L29.278 39.3295C29.0308 38.5881 28.2294 38.1874 27.488 38.4346C26.7466 38.6817 26.3459 39.4831 26.5931 40.2245L29.5289 49.032C29.776 49.7734 30.5774 50.1741 31.3188 49.927Z" fill="white"/>
<path fill-rule="evenodd" clip-rule="evenodd" d="M18.6805 49.927C19.4219 50.1741 20.2233 49.7734 20.4705 49.032L23.4063 40.2245C23.6534 39.4831 23.2527 38.6817 22.5113 38.4346C21.7699 38.1874 20.9685 38.5881 20.7214 39.3295L17.7855 48.1371C17.5384 48.8785 17.9391 49.6799 18.6805 49.927Z" fill="white"/>
<path fill-rule="evenodd" clip-rule="evenodd" d="M0 39.7767C0 40.5582 0.633551 41.1918 1.41507 41.1918H48.5842C49.3658 41.1918 49.9993 40.5582 49.9993 39.7767V7.48246C49.9993 6.70093 49.3658 6.06738 48.5842 6.06738H28.3549C27.5734 6.06738 26.9399 6.70093 26.9399 7.48246C26.9399 8.26398 27.5734 8.89753 28.3549 8.89753H47.1692V38.3616H2.83015V8.89753H21.6444C22.4259 8.89753 23.0595 8.26398 23.0595 7.48246C23.0595 6.70093 22.4259 6.06738 21.6444 6.06738H1.41507C0.633551 6.06738 0 6.70093 0 7.48246V39.7767Z" fill="white"/>
<path fill-rule="evenodd" clip-rule="evenodd" d="M0 33.905C0 34.6865 0.633551 35.3201 1.41507 35.3201H48.5842C49.3658 35.3201 49.9993 34.6865 49.9993 33.905C49.9993 33.1235 49.3658 32.4899 48.5842 32.4899H1.41507C0.633551 32.4899 0 33.1235 0 33.905Z" fill="white"/>
<path fill-rule="evenodd" clip-rule="evenodd" d="M11.8412 48.5843C11.8412 49.3659 12.4748 49.9994 13.2563 49.9994H36.743C37.5246 49.9994 38.1581 49.3659 38.1581 48.5843C38.1581 47.8028 37.5246 47.1693 36.743 47.1693H13.2563C12.4748 47.1693 11.8412 47.8028 11.8412 48.5843Z" fill="white"/>
<path fill-rule="evenodd" clip-rule="evenodd" d="M12.0338 22.8744C12.2874 23.3093 12.7529 23.5768 13.2563 23.5768H36.743C37.2464 23.5768 37.7119 23.3093 37.9655 22.8744C38.219 22.4395 38.2225 21.9027 37.9745 21.4646L26.2311 0.718012C25.98 0.274292 25.5095 0 24.9997 0C24.4898 0 24.0193 0.274292 23.7682 0.718012L12.0248 21.4646C11.7769 21.9027 11.7803 22.4395 12.0338 22.8744ZM15.6833 20.7466L24.9997 4.28775L34.316 20.7466H15.6833Z" fill="white"/>
<path fill-rule="evenodd" clip-rule="evenodd" d="M24.9997 14.7694C25.7812 14.7694 26.4147 14.1358 26.4147 13.3543V10.4185C26.4147 9.63695 25.7812 9.0034 24.9997 9.0034C24.2181 9.0034 23.5846 9.63695 23.5846 10.4185V13.3543C23.5846 14.1358 24.2181 14.7694 24.9997 14.7694Z" fill="white"/>
<path d="M26.4676 17.7581C26.4676 18.5688 25.8104 19.226 24.9997 19.226C24.189 19.226 23.5317 18.5688 23.5317 17.7581C23.5317 16.9474 24.189 16.2902 24.9997 16.2902C25.8104 16.2902 26.4676 16.9474 26.4676 17.7581Z" fill="white"/>
<path fill-rule="evenodd" clip-rule="evenodd" d="M14.7771 28.0333C14.7771 28.8149 15.4106 29.4484 16.1921 29.4484H33.8072C34.5887 29.4484 35.2223 28.8149 35.2223 28.0333C35.2223 27.2518 34.5887 26.6183 33.8072 26.6183H16.1921C15.4106 26.6183 14.7771 27.2518 14.7771 28.0333Z" fill="white"/>
</svg>
