<svg width="36" height="47" viewBox="0 0 36 47" fill="none" xmlns="http://www.w3.org/2000/svg">
<path d="M29.8431 12.8844V22.3339H24.4943V12.8844C24.4943 9.19376 21.499 6.19844 17.8083 6.19844C14.1177 6.19844 11.1224 9.19376 11.1224 12.8844V22.3339H5.77358V12.8844C5.77358 6.22519 11.1491 0.84967 17.8083 0.84967C24.4675 0.84967 29.8431 6.22519 29.8431 12.8844Z" fill="#C5C9F7"/>
<path d="M29.8431 12.8844V22.3339H24.4943V12.8844C24.4943 9.19376 21.499 6.19844 17.8083 6.19844V0.84967C24.4675 0.84967 29.8431 6.22519 29.8431 12.8844Z" fill="#A8AFF1"/>
<path d="M25.8315 19.6595H9.15864C4.33512 19.6595 0.424807 23.5699 0.424807 28.3934C0.424807 36.6448 5.88724 44.3196 13.9503 46.0729C25.192 48.5174 35.1918 39.8541 35.1918 29.0199C35.1918 23.8503 31.0011 19.6595 25.8315 19.6595Z" fill="#17ACE8"/>
<path d="M35.1918 29.0199C35.1918 38.5941 27.3827 46.4926 17.8083 46.4926V19.6595H25.8315C31.0011 19.6595 35.1918 23.8503 35.1918 29.0199Z" fill="#1689FC"/>
<path d="M19.1455 31.6942V39.8066C19.1455 40.5553 18.5572 41.1437 17.8083 41.1437C17.0594 41.1437 16.4711 40.5553 16.4711 39.8066V31.6942C16.4711 30.9453 17.0594 30.3571 17.8083 30.3571C18.5572 30.3571 19.1455 30.9453 19.1455 31.6942Z" fill="#0059AA"/>
<path d="M19.1455 31.6942V39.8066C19.1455 40.5553 18.5572 41.1437 17.8083 41.1437V30.3571C18.5572 30.3571 19.1455 30.9453 19.1455 31.6942Z" fill="#08469C"/>
<path d="M17.8083 25.0082C15.5886 25.0082 13.7967 26.8 13.7967 29.0198C13.7967 31.2395 15.5885 33.0314 17.8083 33.0314C20.0282 33.0314 21.8199 31.2395 21.8199 29.0198C21.8199 26.8 20.0282 25.0082 17.8083 25.0082Z" fill="#0059AA"/>
<path d="M21.8199 29.0198C21.8199 31.2395 20.0281 33.0314 17.8083 33.0314V25.0082C20.0281 25.0082 21.8199 26.8 21.8199 29.0198Z" fill="#08469C"/>
</svg>
