<svg width="47" height="47" viewBox="0 0 47 47" fill="none" xmlns="http://www.w3.org/2000/svg">
<path d="M32.494 39.1202L23.2406 36.4459L13.9872 39.1202C13.907 39.2807 13.8803 39.4412 13.8803 39.6284V45.1554H32.601V39.6284C32.601 39.4412 32.5742 39.2807 32.494 39.1202Z" fill="#646D73"/>
<path d="M32.601 45.1554V39.6284C32.601 39.4412 32.5742 39.2807 32.494 39.1202L23.2406 36.4459V45.1554H32.601Z" fill="#474F54"/>
<path d="M44.7249 3.52406H37.8927C37.9043 3.07208 37.9497 2.64686 37.9497 2.18686C37.9497 1.43804 37.3614 0.84967 36.6125 0.84967H9.86869C9.11986 0.84967 8.53149 1.43804 8.53149 2.18686C8.53149 2.64686 8.57696 3.07208 8.58855 3.52406H1.75638C1.01736 3.52406 0.419189 4.12223 0.419189 4.86125V8.2488C0.419189 15.7148 6.40001 21.7803 13.7706 22.1708C15.3066 24.2853 17.1288 25.8543 19.2023 26.7377C18.8814 33.2365 15.164 37.7562 14.2814 38.6922C14.1477 38.7992 14.0407 38.9597 13.9872 39.1201H32.494C32.4405 38.9597 32.3335 38.7992 32.1998 38.6922C31.2905 37.7562 27.5999 33.2632 27.2789 26.7377C29.3525 25.8534 31.1862 24.2844 32.7231 22.169C40.0875 21.7723 46.062 15.7103 46.062 8.24791V4.86125C46.062 4.12223 45.4639 3.52406 44.7249 3.52406ZM3.09358 8.2488V6.19844H8.70355C9.05033 10.6183 10.0086 15.2994 12.0234 19.2771C6.97411 18.1396 3.09358 13.6377 3.09358 8.2488ZM43.3877 8.2488C43.3877 13.6341 39.5107 18.1351 34.465 19.2744C36.4637 15.2967 37.4273 10.6611 37.7777 6.19844H43.3877V8.2488Z" fill="#FF6C6C"/>
<path d="M44.7249 3.52406H37.8927C37.9043 3.07208 37.9497 2.64686 37.9497 2.18686C37.9497 1.43804 37.3614 0.84967 36.6125 0.84967H23.2406V39.1201H32.494C32.4405 38.9597 32.3335 38.7992 32.1998 38.6922C31.2905 37.7562 27.5999 33.2632 27.2789 26.7377C29.3525 25.8534 31.1862 24.2844 32.7231 22.169C40.0875 21.7723 46.062 15.7103 46.062 8.24791V4.86125C46.062 4.12223 45.4639 3.52406 44.7249 3.52406ZM43.3877 8.2488C43.3877 13.6341 39.5107 18.1351 34.465 19.2744C36.4637 15.2967 37.4273 10.6611 37.7777 6.19844H43.3877V8.2488Z" fill="#E63950"/>
<path d="M33.9382 46.4925H12.5431C11.8041 46.4925 11.2059 45.8943 11.2059 45.1553C11.2059 44.4163 11.8041 43.8181 12.5431 43.8181H33.9382C34.6772 43.8181 35.2754 44.4163 35.2754 45.1553C35.2754 45.8943 34.6772 46.4925 33.9382 46.4925Z" fill="#474F54"/>
<path d="M33.9382 43.8181H23.2406V46.4925H33.9382C34.6772 46.4925 35.2754 45.8943 35.2754 45.1553C35.2754 44.4163 34.6772 43.8181 33.9382 43.8181Z" fill="#32393F"/>
</svg>
