<svg width="37" height="47" viewBox="0 0 37 47" fill="none" xmlns="http://www.w3.org/2000/svg">
<path d="M35.7453 6.54584L18.863 0.91825C18.5889 0.826811 18.2929 0.826811 18.0186 0.91825L1.1364 6.54584C0.591295 6.72749 0.223694 7.23771 0.223694 7.81216V28.2754C0.223694 38.3481 17.1738 46.053 17.8953 46.3759C18.069 46.4536 18.2548 46.4924 18.4409 46.4924C18.627 46.4924 18.8128 46.4536 18.9864 46.3759C19.708 46.0529 36.658 38.3481 36.658 28.2754V7.81216C36.658 7.23755 36.2904 6.72734 35.7453 6.54584Z" fill="#17AB93"/>
<path d="M35.7453 6.54579L18.863 0.918202C18.709 0.866873 18.5484 0.847509 18.3885 0.85381V46.4897C18.406 46.4903 18.4233 46.4925 18.4407 46.4925C18.6268 46.4925 18.8126 46.4538 18.9863 46.376C19.7078 46.053 36.6579 38.3482 36.6579 28.2755V7.81211C36.658 7.2375 36.2904 6.72729 35.7453 6.54579Z" fill="#11937A"/>
<path d="M30.2196 11.7363L18.8629 7.95072C18.589 7.85928 18.2927 7.85928 18.0187 7.95072L6.6621 11.7363C6.11684 11.918 5.74924 12.4282 5.74924 13.0026V26.7683C5.74924 29.8218 7.84558 32.8874 11.9797 35.8801C14.8969 37.9917 17.7742 39.2892 17.8953 39.3435C18.069 39.4212 18.2548 39.4599 18.4409 39.4599C18.627 39.4599 18.8128 39.4212 18.9864 39.3435C19.1074 39.2894 21.9849 37.9917 24.902 35.8801C29.0363 32.8874 31.1325 29.8218 31.1325 26.7683V13.0026C31.1325 12.4282 30.7649 11.918 30.2196 11.7363Z" fill="#82D9C8"/>
<path d="M30.2196 11.7363L18.8629 7.95073C18.7092 7.8994 18.5484 7.88004 18.3885 7.88634V39.4572C18.406 39.4578 18.4233 39.46 18.4407 39.46C18.6268 39.46 18.8126 39.4212 18.9863 39.3435C19.1072 39.2894 21.9847 37.9917 24.9019 35.8801C29.0361 32.8874 31.1323 29.8218 31.1323 26.7683V13.0026C31.1325 12.4282 30.7649 11.918 30.2196 11.7363Z" fill="#67C1B0"/>
</svg>
